<svg xmlns="http://www.w3.org/2000/svg" version="1.1" xmlns:xlink="http://www.w3.org/1999/xlink" xmlns:svgjs="http://svgjs.dev/svgjs" width="1440" height="560" preserveAspectRatio="none" viewBox="0 0 1440 560"><g mask="url(&quot;#SvgjsMask1006&quot;)" fill="none"><rect width="1440" height="560" x="0" y="0" fill="rgba(255, 255, 255, 1)"></rect><path d="M1016.5942473803373 222.53203380052722L971.2673535898904 97.99741661725659 892.0596301970667 267.8589275909741z" fill="rgba(187, 0, 0, 1)" class="triangle-float1"></path><path d="M-5.940329950270632 195.10298536181563L71.67707909755262 258.07889610923274 86.849393846503 172.0324233119926z" fill="rgba(187, 0, 0, 1)" class="triangle-float2"></path><path d="M1008.8528433807543 271.4256362507305L1111.0998060185634 153.803960697888 993.4781304657208 51.556998060078826 891.2311678279117 169.1786736129214z" fill="rgba(187, 0, 0, 1)" class="triangle-float3"></path><path d="M635.1639014692876 130.3814898986626L536.5001046418279 86.45353734962423 519.9400742320001 256.413208865333z" fill="rgba(187, 0, 0, 1)" class="triangle-float2"></path><path d="M1223.5810285810476 174.19739235206208L1304.2088539243998 289.3458604041217 1419.3573219764594 208.71803506076952 1338.7294966331071 93.56956700870991z" fill="rgba(187, 0, 0, 1)" class="triangle-float1"></path><path d="M298.581,740.634C357.891,735.782,389.792,676.989,418.152,624.674C444.64,575.813,469.881,520.835,444.552,471.363C417.432,418.393,357.979,387.502,298.581,391.129C244.242,394.447,209.237,441.226,180.534,487.485C149.424,537.623,114.589,593.993,139.526,647.47C167.358,707.155,232.945,746.004,298.581,740.634" fill="rgba(187, 0, 0, 1)" class="triangle-float3"></path><path d="M788.366,604.417C833.364,604.141,873.559,578.374,896.342,539.569C919.433,500.239,924.953,451.02,901.328,412.009C878.41,374.166,832.575,359.556,788.366,361.27C747.31,362.862,711.116,385.202,689.618,420.216C666.954,457.129,657.608,502.731,678.073,540.906C699.557,580.981,742.897,604.696,788.366,604.417" fill="rgba(187, 0, 0, 1)" class="triangle-float3"></path><path d="M56.20836387325444 243.95869933822866L-22.372641377621008 303.1737341061748 36.84239339032513 381.75473935705025 115.42339864120058 322.5397045891041z" fill="rgba(187, 0, 0, 1)" class="triangle-float1"></path><path d="M1003.3460128485438 351.2776522708476L1143.7554032921353 376.03561615088205 1168.5133671721696 235.62622570729053 1028.1039767285781 210.86826182725608z" fill="rgba(187, 0, 0, 1)" class="triangle-float2"></path><path d="M672.9062925556666 25.328411853357153L558.5526095051121 33.324800343081094 566.548997994836 147.67848339363564 680.9026810453905 139.68209490391172z" fill="rgba(187, 0, 0, 1)" class="triangle-float2"></path><path d="M299.9630070281817 452.7018886991409L384.6909535407349 478.60582152501667 381.18287952327194 338.5619353432491z" fill="rgba(187, 0, 0, 1)" class="triangle-float1"></path><path d="M340.426,642.763C382.6,643.663,426.548,635.252,450.758,600.707C478.708,560.826,490.46,506.595,464.918,465.131C440.206,425.015,387.53,420.514,340.426,421.6C295.794,422.629,248.094,432.149,225.495,470.651C202.684,509.513,212.939,558.689,237.964,596.164C260.296,629.607,300.221,641.905,340.426,642.763" fill="rgba(187, 0, 0, 1)" class="triangle-float3"></path><path d="M242.701,227.872C279.91,226.515,309.863,199.15,326.42,165.8C341.187,136.056,336.527,101.637,319.536,73.105C302.986,45.314,275.043,24.682,242.701,25.217C211.151,25.739,187.264,49.069,170.145,75.575C150.896,105.379,132.438,140.284,147.698,172.315C164.609,207.812,203.408,229.304,242.701,227.872" fill="rgba(187, 0, 0, 1)" class="triangle-float1"></path><path d="M944.419092179236 124.98971169888391L844.6188814803396 131.96842226434836 904.9870526779846 278.17938302996083z" fill="rgba(187, 0, 0, 1)" class="triangle-float1"></path><path d="M164.598,543.848C180.879,543.861,198.607,542.13,207.505,528.495C217.079,513.824,215.462,494.586,206.612,479.466C197.855,464.504,181.922,454.534,164.598,455.189C148.235,455.808,136.01,468.309,127.75,482.448C119.396,496.748,113.29,514.224,121.813,528.425C130.174,542.357,148.35,543.835,164.598,543.848" fill="rgba(187, 0, 0, 1)" class="triangle-float2"></path></g><defs><mask id="SvgjsMask1006"><rect width="1440" height="560" fill="#ffffff"></rect></mask><style>
                @keyframes float1 {
                    0%{transform: translate(0, 0)}
                    50%{transform: translate(-10px, 0)}
                    100%{transform: translate(0, 0)}
                }

                .triangle-float1 {
                    animation: float1 5s infinite;
                }

                @keyframes float2 {
                    0%{transform: translate(0, 0)}
                    50%{transform: translate(-5px, -5px)}
                    100%{transform: translate(0, 0)}
                }

                .triangle-float2 {
                    animation: float2 4s infinite;
                }

                @keyframes float3 {
                    0%{transform: translate(0, 0)}
                    50%{transform: translate(0, -10px)}
                    100%{transform: translate(0, 0)}
                }

                .triangle-float3 {
                    animation: float3 6s infinite;
                }
            </style></defs></svg>